<svg width="24" height="25" viewBox="0 0 24 25" fill="none" xmlns="http://www.w3.org/2000/svg">
<g clip-path="url(#clip0_3491_15097)">
<path d="M12 0.652344C5.37264 0.652344 0 6.02498 0 12.6523C0 18.2799 3.87456 23.0021 9.10128 24.2991V16.3195H6.62688V12.6523H9.10128V11.0722C9.10128 6.98786 10.9498 5.09474 14.9597 5.09474C15.72 5.09474 17.0318 5.24402 17.5685 5.39282V8.71682C17.2853 8.68706 16.7933 8.67218 16.1822 8.67218C14.2147 8.67218 13.4544 9.41762 13.4544 11.3554V12.6523H17.3741L16.7006 16.3195H13.4544V24.5645C19.3963 23.8469 24.0005 18.7877 24.0005 12.6523C24 6.02498 18.6274 0.652344 12 0.652344Z" fill="black"/>
</g>
<defs>
<clipPath id="clip0_3491_15097">
<rect width="24" height="24" fill="white" transform="translate(0 0.652344)"/>
</clipPath>
</defs>
</svg>
